PathFileType	4	(X/Y/Z)	C:\Users\WrightLab\Desktop\Jo\P5V129.trc
DataRate	CameraRate	NumFrames	NumMarkers	Units	OrigDataRate	OrigDataStartFrame	OrigNumFrames
100.00	100.00	       33	19	mm	100.00	588	       671
Frame#	Time	Headset_Front			Headset_Back			Headset_Left			Headset_Right			Left_Shoulder			Right_Shoulder			Sternum			C7			Left Elbow			Right Elbow			Left Wrist			Right Wrist			Left ASIS			Right ASIS			S2			Left Knee			Right Knee			Left Ankle			Right Ankle			
		X1	Y1	Z1	X2	Y2	Z2	X3	Y3	Z3	X4	Y4	Z4	X5	Y5	Z5	X6	Y6	Z6	X7	Y7	Z7	X8	Y8	Z8	X9	Y9	Z9	X10	Y10	Z10	X11	Y11	Z11	X12	Y12	Z12	X13	Y13	Z13	X14	Y14	Z14	X15	Y15	Z15	X16	Y16	Z16	X17	Y17	Z17	X18	Y18	Z18	X19	Y19	Z19	

588	5.870				280.01822	1460.24927	-1201.02905							-5.87936	1487.09924	-987.44897	55.62294	1569.55627	-1098.56714	177.56393	1310.26294	-1022.49158	365.49503	1527.10242	-986.02380							202.38745	990.74335	-669.63086				157.95796	930.75201	-872.46021				453.82281	983.89117	-902.88153	92.90808	521.05878	-893.92615	368.75034	485.77454	-1129.40991	273.11328	155.89821	-840.76886				
589	5.880	292.69968	1219.12012	-683.62256	271.81390	1460.28369	-1204.94495							-10.48600	1486.85327	-986.14008	48.57906	1569.45300	-1098.44739	172.11838	1310.26184	-1025.10022	360.78922	1526.86133	-990.84570							207.15753	991.26569	-669.33594				155.64752	930.02936	-875.19220	244.34277	940.25049	-1151.80884	449.67807	983.80042	-908.72791	88.84940	521.97717	-897.10901	365.10986	485.30902	-1130.77832	256.01279	147.26950	-854.63715	200.41574	1022.56067	-1277.19202	
590	5.890	292.22205	1220.99939	-688.17389	263.52347	1459.91040	-1209.10413							-14.96791	1486.83508	-984.69659	41.65138	1568.79553	-1098.00732	166.88239	1310.64331	-1026.90564	355.63699	1526.93567	-997.08704							207.20920	991.85291	-668.48364				150.95685	931.61224	-877.14331				444.61017	984.15741	-914.83411	85.49069	521.39172	-900.83740	361.63971	485.10471	-1131.25110	239.81456	138.46692	-868.65167	191.16925	1022.38947	-1278.72119	
591	5.900	295.52921	1220.39954	-691.82446	255.40009	1459.75232	-1212.61292							-19.29075	1487.19458	-983.06702	34.82106	1568.35376	-1098.11572	161.38884	1310.62720	-1029.41541	350.61572	1526.87830	-1002.15924							211.10381	990.85797	-669.90259				150.01163	930.53052	-877.94098	230.60870	939.77332	-1158.70422	440.82541	984.24030	-921.08002	82.94543	521.93756	-903.43787	357.75134	484.88602	-1133.07813	222.71355	130.99377	-882.62189	181.27667	1022.62103	-1281.73718	
592	5.910	295.49597	1220.34863	-693.56494	247.37563	1459.88928	-1216.25159							-23.87321	1487.35596	-981.88959	28.28319	1568.63342	-1098.15100	155.83035	1311.12952	-1031.70142	345.82538	1526.29797	-1006.58173							211.93819	991.33435	-671.77252				144.58435	931.07422	-880.26733				436.30466	983.69171	-925.99170	80.22257	521.53320	-905.67041	353.15833	484.02493	-1133.42249	205.81319	122.54797	-897.50238	171.05870	1023.17139	-1285.39624	
593	5.920	295.39560	1220.19678	-698.78510	212.13948	940.26111	-1165.59448							-28.30825	1487.03833	-979.82111	21.89903	1567.98816	-1096.67737	150.04372	1311.17737	-1034.38464	340.52911	1526.15686	-1012.18304							214.49878	991.52509	-671.44446				140.61758	931.08722	-882.08484				430.61581	983.40216	-931.43066	78.38578	521.06006	-906.55292	348.31454	483.87033	-1134.72107	188.62517	116.27671	-910.39386	160.94983	1023.49335	-1288.45593	
594	5.930	295.61807	1220.72205	-700.69086										-32.85716	1487.39746	-978.06024	15.16107	1567.69714	-1096.61584	144.27382	1310.49658	-1035.94739	335.51010	1525.60266	-1017.02972							215.78148	991.71381	-671.76947				135.57286	931.53058	-883.55273				425.65332	983.23816	-937.34241	76.66758	520.10077	-907.18414	343.75259	483.38165	-1135.70081	172.60799	108.40019	-924.00702	151.37276	1023.27893	-1289.96570	
595	5.940													-37.72515	1487.92114	-977.05890	8.63851	1568.23303	-1096.73926	138.28548	1310.55115	-1038.53772	330.40952	1525.14539	-1020.91302							217.14818	990.84326	-673.51117				131.26776	930.98419	-885.19476				421.23502	982.61548	-941.27985	75.49584	518.62946	-907.61810	338.35944	483.36154	-1137.59753	156.30489	102.54683	-936.70032	141.97406	1022.80072	-1290.86511	
596	5.950	416.40768	1466.37683	251.34895	189.22119	940.32428	-1175.38696							-42.43298	1487.89160	-975.35474	2.61781	1567.67114	-1094.92651	132.60924	1310.95520	-1040.44275	325.36255	1524.17444	-1025.29675							217.29074	990.61285	-674.48199				125.87014	930.68640	-886.59088				416.28836	982.12244	-946.69513	73.90881	516.01361	-908.18616	333.08551	483.13028	-1138.58923	140.77081	97.67595	-948.92700	132.67328	1022.15143	-1291.40930	
597	5.960	413.02573	1465.58728	251.04005	181.54129	938.91168	-1179.75159							-46.75609	1488.48804	-972.86536	-3.39617	1567.75403	-1094.63647	126.64544	1310.45520	-1042.02319	320.34464	1523.57214	-1029.43738							218.10928	990.31024	-674.47113				120.25261	931.13989	-888.36237				410.08731	980.91254	-950.62976	73.37041	513.34021	-908.99646	327.32123	482.57623	-1140.60437	125.64444	93.38485	-961.56799	123.36031	1021.68286	-1292.17615	
598	5.970	293.44263	1220.51477	-716.60187	687.10651	1181.93433	1526.64392							-51.28239	1488.48901	-971.46527	-8.90520	1567.34717	-1093.18250	120.78011	1309.94092	-1043.20813	315.20404	1522.63928	-1033.63794							219.04048	988.89557	-676.76520				114.56754	931.16791	-888.72552				404.99622	979.74738	-955.93347	73.01097	510.19199	-908.92078	321.20264	482.47781	-1142.16919	112.17805	89.76190	-972.69824	113.91249	1021.63092	-1293.62720	
599	5.980													-55.63691	1488.75220	-970.52917	-14.59869	1566.88123	-1093.08667	114.68443	1309.46619	-1044.99548	310.46176	1521.49756	-1036.43994							219.84958	988.19519	-677.52515				109.38168	930.33643	-889.44012				398.69882	978.46149	-960.79669	73.39380	506.32443	-908.48438	314.97809	482.42889	-1144.10388	100.72561	87.45476	-982.95569	104.41393	1021.90918	-1295.68420	
600	5.990													-59.64840	1489.15454	-968.27966	-19.73323	1566.82349	-1091.58203	109.06134	1309.46045	-1045.72961	305.78818	1519.97937	-1039.29675							219.84698	987.82306	-678.68054				103.48274	928.99078	-890.76935				392.27615	976.57434	-965.24091	74.65107	502.34644	-907.69623	309.77225	481.47916	-1143.01135	92.07954	85.34090	-992.58038	94.96708	1022.11566	-1297.70569	
601	6.000													-63.58519	1489.13269	-966.41516	-24.96802	1566.49939	-1090.98279	103.14159	1309.20020	-1047.35339	300.98663	1518.63098	-1042.73572							218.88336	985.85156	-680.75146				98.60716	927.92688	-892.98389				386.35876	974.60571	-970.18384	75.02678	497.62036	-907.68134	303.66324	481.30008	-1144.18335	82.83603	82.91365	-1001.11865	85.47456	1022.38556	-1299.73853	
602	6.010																-29.67315	1566.40747	-1089.43408	97.32555	1308.35559	-1047.97192	296.37982	1517.17151	-1045.31653							218.43951	984.63879	-682.42004				94.51956	926.82227	-893.94781				380.93109	972.02618	-975.19275	76.32369	492.90460	-907.64813	297.61978	481.07635	-1145.04517	74.78604	79.24465	-1010.21942	76.42841	1022.14105	-1300.38538	
603	6.020																-34.45124	1565.88281	-1089.05688	91.60969	1307.61499	-1048.30957	291.93576	1515.40247	-1047.90234							217.13956	983.94165	-683.38251				88.26896	926.57001	-895.48059				374.38492	969.46295	-979.65289	76.77385	488.35446	-907.81891	291.23599	480.59277	-1145.80933	71.03017	78.18598	-1014.59564	67.40315	1021.50775	-1300.39795	
604	6.030																-38.64355	1565.27185	-1087.25598	86.05698	1306.76013	-1048.28735	287.69736	1513.36597	-1049.78284							216.56456	981.69611	-685.32886				82.86987	925.58246	-897.81543				369.87469	967.45605	-985.70837	75.67742	485.15118	-908.42950				66.83516	75.32323	-1020.72815	58.45513	1020.84326	-1300.26172	
605	6.040																-42.86721	1565.00647	-1086.81531	80.45436	1306.85620	-1049.00146	283.56854	1511.32715	-1051.97314							214.86070	979.53693	-687.02142				77.52642	924.23431	-898.51746				362.29031	963.62891	-989.97253	74.77434	482.32614	-911.31055				65.31601	73.95879	-1022.79114	49.59537	1020.35114	-1300.19031	
606	6.050																-46.67627	1564.50244	-1084.66846	73.75552	1306.30493	-1049.12744	279.47034	1509.07458	-1053.33252							212.90009	977.35455	-688.13635				71.45367	922.53448	-900.74884				356.06256	960.47729	-995.46881	72.32115	479.44202	-915.12897				65.72266	72.28872	-1025.07471	40.86296	1020.24780	-1300.56812	
607	6.060																-50.82541	1564.43677	-1084.21716	68.38976	1305.52527	-1048.82983	275.61349	1506.56128	-1054.62683							211.28285	975.96741	-690.77460				64.73871	921.55011	-902.89893				349.80060	957.41547	-1001.04486	70.45177	476.14587	-918.63654				67.28681	70.72028	-1027.19556	32.14542	1020.14227	-1300.74902	
608	6.070																-54.77118	1564.54590	-1082.13000	62.92868	1304.69849	-1049.01196	271.84622	1504.41821	-1055.54968							208.96774	974.97705	-691.02216				58.45938	920.13763	-904.69305				343.32846	954.16425	-1006.19611	67.00729	472.89792	-922.64069				66.10997	70.07474	-1028.29858	23.41822	1020.15369	-1301.15710	
609	6.080																-58.88547	1564.51685	-1080.33557	58.16004	1304.68640	-1048.75696										207.42871	972.54388	-691.83441				52.69956	919.30396	-905.91528				337.21240	951.35083	-1011.69989	63.90327	470.31790	-926.20630				65.01989	70.02187	-1028.13342	14.93514	1019.38062	-1299.91370	
610	6.090																-63.19130	1564.92847	-1078.35693	53.57008	1304.36377	-1047.92090										204.66930	970.62793	-693.34442				46.68920	918.48370	-907.51337				329.63141	949.28558	-1016.38580	60.12227	467.64590	-930.56940				63.42081	69.89746	-1028.79773	6.62936	1018.42755	-1298.06982	
611	6.100																-67.77702	1565.79346	-1076.57166	49.49762	1305.09851	-1048.42065										202.76353	969.34314	-695.17847				40.98351	917.88641	-909.39758				323.19724	947.01208	-1020.56647	57.11317	467.02878	-932.82343				62.69417	69.56026	-1028.22168	-1.82644	1017.96490	-1296.93542	
612	6.110																-72.17366	1566.73560	-1074.15649	45.12217	1305.11804	-1048.45129										200.21863	968.67010	-697.82367				36.59357	918.09595	-910.28503				317.53183	946.38074	-1024.49524	52.63199	469.54520	-936.35632				62.94275	69.64619	-1027.59082	-10.31109	1018.34253	-1297.00439	
613	6.120																-76.21479	1567.70520	-1071.45544	40.14762	1306.03333	-1048.46936										198.27785	968.21680	-700.16840				32.30719	919.08612	-912.00250				311.31094	945.95514	-1028.60327	48.71806	473.68567	-938.41907				62.62144	70.04114	-1027.44592	-18.85393	1019.15417	-1297.49988	
614	6.130																-79.84335	1568.38611	-1068.76343	35.01013	1306.82202	-1048.65540										196.04947	968.32922	-701.71460				27.57274	920.39075	-912.66302				305.68030	945.56927	-1031.97070	44.74485	477.20782	-939.93689				62.58786	69.49918	-1027.23840	-27.26261	1019.94110	-1297.44812	
615	6.140																-83.26856	1568.38257	-1066.44617	30.33799	1307.10144	-1049.23315										194.29524	968.55164	-704.73804				23.45404	920.98132	-913.94403				300.24652	945.19366	-1035.06543	40.86001	479.48849	-942.57965				62.32824	69.70281	-1027.26489	-35.63219	1020.69714	-1296.92517	
616	6.150																-86.51224	1568.29004	-1064.17603	26.18454	1307.24329	-1048.85706										191.79921	968.30035	-706.13452				20.50477	921.37720	-915.08679				294.70432	944.84436	-1037.47595	36.79013	481.52579	-943.09680				62.07930	68.70360	-1027.62830	-43.72180	1020.93152	-1295.19080	
617	6.160																-89.80085	1568.35657	-1061.15857	20.98218	1307.66748	-1049.15894										189.71866	968.80719	-709.14935				16.17248	922.31384	-916.32593				288.70538	943.75342	-1040.80505	33.95625	483.17679	-942.33643				61.84881	69.00443	-1027.47058	-51.77484	1021.17462	-1293.33826	
618	6.170																-93.65951	1569.14050	-1058.73987	16.81599	1308.31006	-1049.53064										188.24371	969.16345	-711.00171				14.25292	922.36725	-917.00153				283.09824	943.78387	-1043.18042	30.20390	485.08066	-941.80548				61.83445	69.01456	-1027.48022	-59.79524	1021.50763	-1291.27087	
619	6.180																-97.49569	1570.31787	-1055.43201	12.70582	1308.61108	-1049.13672										185.63364	969.55328	-713.86176				9.44878	923.36462	-918.00427				277.41071	943.11481	-1046.71057	26.64425	483.86002	-941.97131				61.79005	69.02867	-1027.50720	-67.61938	1021.55450	-1288.73621	
620	6.190																-101.24058	1571.72925	-1053.01819	8.72070	1309.06433	-1049.19275										183.67674	970.27057	-715.84192				6.25511	923.58105	-917.54486				272.37933	942.68378	-1049.27588	24.84496	482.40567	-939.94916				60.76897	69.33811	-1028.20410	-75.63114	1021.94019	-1287.03003	
